<?xml version="1.0" encoding="utf-8"?>
<!-- Generator: Adobe Illustrator 14.0.0, SVG Export Plug-In . SVG Version: 6.00 Build 43363)  -->
<!DOCTYPE svg PUBLIC "-//W3C//DTD SVG 1.1//EN" "http://www.w3.org/Graphics/SVG/1.1/DTD/svg11.dtd">
<svg version="1.1" id="Layer_1" xmlns="http://www.w3.org/2000/svg" xmlns:xlink="http://www.w3.org/1999/xlink" x="0px" y="0px"
	 width="292.938px" height="292.928px" viewBox="0 0 292.938 292.928" enable-background="new 0 0 292.938 292.928"
	 xml:space="preserve">
<g>
	<g>
		<defs>
			<rect id="SVGID_1_" x="33.851" y="29.581" width="225.266" height="119.62"/>
		</defs>
		<clipPath id="SVGID_2_">
			<use xlink:href="#SVGID_1_"  overflow="visible"/>
		</clipPath>
		<g clip-path="url(#SVGID_2_)">
			<defs>
				<path id="SVGID_3_" d="M257.289,146.417c0,61.133-49.564,110.685-110.68,110.685c-61.133,0-110.684-49.551-110.684-110.685
					c0-61.126,49.551-110.677,110.684-110.677C207.725,35.741,257.289,85.291,257.289,146.417z"/>
			</defs>
			<clipPath id="SVGID_4_">
				<use xlink:href="#SVGID_3_"  overflow="visible"/>
			</clipPath>
			<g clip-path="url(#SVGID_4_)">
				<rect x="25.12" y="27.207" fill="none" stroke="#AC1E23" stroke-width="2" width="231.146" height="231.135"/>
				<line fill="none" stroke="#AC1E23" stroke-width="2" x1="25.12" y1="247.292" x2="256.266" y2="247.292"/>
				<line fill="none" stroke="#AC1E23" stroke-width="2" x1="25.12" y1="236.336" x2="256.266" y2="236.336"/>
				<line fill="none" stroke="#AC1E23" stroke-width="2" x1="25.12" y1="225.272" x2="256.266" y2="225.272"/>
				<line fill="none" stroke="#AC1E23" stroke-width="2" x1="25.12" y1="214.331" x2="256.266" y2="214.331"/>
				<line fill="none" stroke="#AC1E23" stroke-width="2" x1="25.12" y1="203.267" x2="256.266" y2="203.267"/>
				<line fill="none" stroke="#AC1E23" stroke-width="2" x1="25.12" y1="192.325" x2="256.266" y2="192.325"/>
				<line fill="none" stroke="#AC1E23" stroke-width="2" x1="25.12" y1="181.262" x2="256.266" y2="181.262"/>
				<line fill="none" stroke="#AC1E23" stroke-width="2" x1="25.12" y1="170.319" x2="256.266" y2="170.319"/>
				<line fill="none" stroke="#AC1E23" stroke-width="2" x1="25.12" y1="159.256" x2="256.266" y2="159.256"/>
				<line fill="none" stroke="#AC1E23" stroke-width="2" x1="25.12" y1="148.301" x2="256.266" y2="148.301"/>
				<line fill="none" stroke="#AC1E23" stroke-width="2" x1="25.12" y1="137.25" x2="256.266" y2="137.25"/>
				<line fill="none" stroke="#AC1E23" stroke-width="2" x1="25.12" y1="126.301" x2="256.266" y2="126.301"/>
				<line fill="none" stroke="#AC1E23" stroke-width="2" x1="25.12" y1="115.241" x2="256.266" y2="115.241"/>
				<line fill="none" stroke="#AC1E23" stroke-width="2" x1="25.12" y1="104.292" x2="256.266" y2="104.292"/>
				<line fill="none" stroke="#AC1E23" stroke-width="2" x1="25.12" y1="93.231" x2="256.266" y2="93.231"/>
				<line fill="none" stroke="#AC1E23" stroke-width="2" x1="25.12" y1="82.283" x2="256.266" y2="82.283"/>
				<line fill="none" stroke="#AC1E23" stroke-width="2" x1="25.12" y1="71.226" x2="256.266" y2="71.226"/>
				<line fill="none" stroke="#AC1E23" stroke-width="2" x1="25.12" y1="60.274" x2="256.266" y2="60.274"/>
				<line fill="none" stroke="#AC1E23" stroke-width="2" x1="25.12" y1="49.216" x2="256.266" y2="49.216"/>
				<line fill="none" stroke="#AC1E23" stroke-width="2" x1="25.12" y1="38.268" x2="256.266" y2="38.268"/>
				<line fill="none" stroke="#AC1E23" stroke-width="2" x1="245.256" y1="27.207" x2="245.256" y2="258.342"/>
				<line fill="none" stroke="#AC1E23" stroke-width="2" x1="234.26" y1="27.207" x2="234.26" y2="258.342"/>
				<line fill="none" stroke="#AC1E23" stroke-width="2" x1="223.25" y1="27.207" x2="223.25" y2="258.342"/>
				<line fill="none" stroke="#AC1E23" stroke-width="2" x1="212.254" y1="27.207" x2="212.254" y2="258.342"/>
				<line fill="none" stroke="#AC1E23" stroke-width="2" x1="201.244" y1="27.207" x2="201.244" y2="258.342"/>
				<line fill="none" stroke="#AC1E23" stroke-width="2" x1="190.234" y1="27.207" x2="190.234" y2="258.342"/>
				<line fill="none" stroke="#AC1E23" stroke-width="2" x1="179.239" y1="27.207" x2="179.239" y2="258.342"/>
				<line fill="none" stroke="#AC1E23" stroke-width="2" x1="168.229" y1="27.207" x2="168.229" y2="258.342"/>
				<line fill="none" stroke="#AC1E23" stroke-width="2" x1="157.233" y1="27.207" x2="157.233" y2="258.342"/>
				<line fill="none" stroke="#AC1E23" stroke-width="2" x1="146.227" y1="27.207" x2="146.227" y2="258.342"/>
				<line fill="none" stroke="#AC1E23" stroke-width="2" x1="135.163" y1="27.207" x2="135.163" y2="258.342"/>
				<line fill="none" stroke="#AC1E23" stroke-width="2" x1="124.16" y1="27.207" x2="124.16" y2="258.342"/>
				<line fill="none" stroke="#AC1E23" stroke-width="2" x1="113.157" y1="27.207" x2="113.157" y2="258.342"/>
				<line fill="none" stroke="#AC1E23" stroke-width="2" x1="102.154" y1="27.207" x2="102.154" y2="258.342"/>
				<line fill="none" stroke="#AC1E23" stroke-width="2" x1="91.151" y1="27.207" x2="91.151" y2="258.342"/>
				<line fill="none" stroke="#AC1E23" stroke-width="2" x1="80.148" y1="27.207" x2="80.148" y2="258.342"/>
				<line fill="none" stroke="#AC1E23" stroke-width="2" x1="69.145" y1="27.207" x2="69.145" y2="258.342"/>
				<line fill="none" stroke="#AC1E23" stroke-width="2" x1="58.135" y1="27.207" x2="58.135" y2="258.342"/>
				<line fill="none" stroke="#AC1E23" stroke-width="2" x1="47.132" y1="27.207" x2="47.132" y2="258.342"/>
				<line fill="none" stroke="#AC1E23" stroke-width="2" x1="36.129" y1="27.207" x2="36.129" y2="258.342"/>
			</g>
			<use xlink:href="#SVGID_3_"  overflow="visible" fill="none" stroke="#AC1E23" stroke-width="2"/>
		</g>
	</g>
	<path fill="#AC1E23" stroke="#AC1E23" stroke-width="2" d="M37.6,48.412l15.389,7.701l4.311-4.284l-7.626-15.355l6.29-5.229
		L69.81,41.46l5.178-3.612l-4.85-16.443l7.101-4.066l11.869,12.453l5.859-2.722l-1.917-17.037l7.701-2.766l9.522,14.329l6.099-1.63
		l1.057-17.111l8.063-1.392l6.903,15.757l6.214-0.546L142.594,0l8.186,0.014l4.086,16.716l6.289,0.542l6.808-15.737l8.057,1.429
		l1.139,17.169l6.896,1.859l9.522-14.264l7.667,2.852l-1.957,17.094l5.709,2.688l11.842-12.405l7.061,4.13l-4.877,16.498l6.002,4.27
		l13.889-10.062l6.194,5.345l-7.776,15.341l4.42,4.509l15.409-7.51l5.185,6.333l-10.32,13.769l3.444,5l16.474-4.765l4.024,7.125
		l-12.523,11.804l2.633,5.733l17.047-1.845l2.735,7.711l-14.366,9.465l1.269,4.748l17.122,0.941l1.446,8.056l-15.717,7.005
		l0.594,6.286l16.698,3.885l0.034,8.183l-16.685,4.191l-0.505,6.214l15.784,6.706l-1.378,8.063l-17.162,1.255l-1.583,6.105
		l14.387,9.332l-2.749,7.701l-17.122-1.732l-2.98,6.493l12.482,11.761l-4.086,7.094l-16.535-4.774l-3.602,5.184l10.267,13.739
		l-5.246,6.275l-15.457-7.559l-4.216,4.264l7.77,15.287l-6.241,5.279l-13.943-10.074l-5.143,3.662l5.014,16.398l-7.061,4.135
		l-11.992-12.348l-5.634,2.695l2.114,17.012l-7.667,2.859l-9.687-14.223l-6.085,1.697l-0.853,17.123l-8.049,1.486l-7.088-15.676
		l-7.107,0.668l-3.916,16.699l-8.179,0.021l-4.161-16.693l-6.296-0.518l-6.733,15.771l-8.063-1.393l-1.214-17.162l-7.122-1.896
		l-9.475,14.291l-7.681-2.832l1.91-17.094l-5.716-2.674l-11.801,12.436l-7.081-4.113l4.836-16.508l-4.979-3.479l-13.752,10.238
		l-6.269-5.26l7.585-15.443l-4.475-4.453L37,243.854l-5.259-6.27l10.143-13.901l-3.724-5.28l-16.426,4.926l-4.093-7.088
		l12.401-11.924l-2.688-5.709l-17.026,2.012l-2.811-7.688l14.277-9.604l-1.644-6.017l-17.115-0.948l-1.439-8.056l15.717-6.999
		l-0.587-6.289l-16.699-3.889L0,142.949l16.685-4.182l0.601-7.122l-15.73-6.821l1.439-8.056l17.169-1.119l1.624-6.098l-14.311-9.441
		l2.81-7.685l17.102,1.862l3.131-6.668L18.145,75.751l4.147-7.053l16.494,4.922l3.643-5.15L31.72,56.113L37.6,48.412
		 M146.469,35.785c-61.133,0-110.684,49.55-110.684,110.68c0,61.126,49.55,110.678,110.684,110.678
		c61.12,0,110.677-49.551,110.677-110.678C257.146,85.335,207.589,35.785,146.469,35.785z"/>
	<g>
		<defs>
			<path id="SVGID_5_" d="M257.146,147.287c0,61.13-49.55,110.68-110.677,110.68c-61.133,0-110.684-49.55-110.684-110.68
				c0-61.126,49.55-110.677,110.684-110.677C207.596,36.61,257.146,86.161,257.146,147.287z"/>
		</defs>
		<clipPath id="SVGID_6_">
			<use xlink:href="#SVGID_5_"  overflow="visible"/>
		</clipPath>
		<g clip-path="url(#SVGID_6_)">
			<rect x="46.993" y="104.336" fill="#AC1E23" stroke="#AC1E23" stroke-width="2" width="11.003" height="44.015"/>
			<rect x="57.996" y="82.327" fill="#AC1E23" stroke="#AC1E23" stroke-width="2" width="11.01" height="66.024"/>
			<rect x="113.017" y="203.314" fill="#AC1E23" stroke="#AC1E23" stroke-width="2" width="33.452" height="58.583"/>
			<rect x="102.007" y="225.32" fill="#AC1E23" stroke="#AC1E23" stroke-width="2" width="11.01" height="36.577"/>
			<rect x="80.001" y="203.314" fill="#AC1E23" stroke="#AC1E23" stroke-width="2" width="22.005" height="48.139"/>
			<rect x="69.005" y="214.379" fill="#AC1E23" stroke="#AC1E23" stroke-width="2" width="10.996" height="29.237"/>
			<rect x="52.498" y="203.314" fill="#AC1E23" stroke="#AC1E23" stroke-width="2" width="16.508" height="29.292"/>
			<rect x="80.001" y="115.285" fill="#AC1E23" stroke="#AC1E23" stroke-width="2" width="11.01" height="33.067"/>
			<rect x="91.011" y="126.346" fill="#AC1E23" stroke="#AC1E23" stroke-width="2" width="10.996" height="22.006"/>
			<rect x="113.017" y="49.237" fill="#AC1E23" stroke="#AC1E23" stroke-width="2" width="11.01" height="99.115"/>
			<rect x="124.026" y="82.327" fill="#AC1E23" stroke="#AC1E23" stroke-width="2" width="10.996" height="66.024"/>
			<rect x="135.022" y="60.318" fill="#AC1E23" stroke="#AC1E23" stroke-width="2" width="11.446" height="88.033"/>
		</g>
		
			<rect x="35.785" y="148.352" clip-path="url(#SVGID_6_)" fill="none" stroke="#AC1E23" stroke-width="2" width="221.36" height="54.963"/>
		<use xlink:href="#SVGID_5_"  overflow="visible" fill="none" stroke="#AC1E23" stroke-width="2"/>
	</g>
	<g>
		<polygon fill="none" stroke="#AC1E23" stroke-width="2" points="243.346,192.837 49.578,192.837 49.578,158.212 184.805,158.212 
			243.346,158.212 		"/>
		<g>
			<path fill="#AC1E23" stroke="#AC1E23" stroke-width="2" d="M202.118,190.033c0,5.424-4.428,9.816-9.892,9.816h-13.684
				c-5.471,0-9.897-4.393-9.897-9.816v-29.011c0-5.416,4.427-9.81,9.897-9.81h13.684c5.464,0,9.892,4.394,9.892,9.81V190.033z
				 M201.858,158.212h-33.213v34.079h33.213V158.212z"/>
			<line fill="none" stroke="#AC1E23" stroke-width="2" x1="184.805" y1="158.212" x2="184.805" y2="192.837"/>
		</g>
		<path fill="none" stroke="#AC1E23" stroke-width="2" d="M237.289,178.226"/>
		<polyline fill="none" stroke="#AC1E23" stroke-width="2" stroke-linejoin="round" points="242.527,169.494 235.543,169.494 
			233.796,172.987 232.05,169.494 230.304,166.002 228.558,169.494 226.812,172.987 225.064,169.494 223.318,166.002 
			221.572,169.494 219.826,172.987 218.08,169.494 216.333,166.002 214.587,169.494 212.841,169.494 209.349,169.494 
			195.378,169.494 137.751,169.494 136.005,172.987 134.259,169.494 132.512,166.002 130.766,169.494 129.02,172.987 
			127.273,169.494 125.527,166.002 123.781,169.494 122.035,172.987 120.289,169.494 118.542,166.002 116.796,169.494 
			83.617,169.494 81.87,172.987 80.124,169.494 78.378,166.002 76.631,169.494 74.885,172.987 73.139,169.494 71.393,166.002 
			69.646,169.494 67.9,172.987 66.154,169.494 64.408,166.002 62.661,169.494 50.438,169.494 		"/>
		<path fill="none" stroke="#AC1E23" stroke-width="2" stroke-linejoin="round" d="M246.021,183.465"/>
		<polyline fill="none" stroke="#AC1E23" stroke-width="2" stroke-linejoin="round" points="242.527,181.719 226.812,181.719 
			225.064,185.211 223.318,181.719 221.572,178.226 219.826,181.719 218.08,185.211 216.333,181.719 214.587,178.226 
			212.841,181.719 211.095,185.211 209.349,181.719 207.603,178.226 205.855,181.719 200.617,181.719 188.394,181.719 
			160.453,181.719 158.706,185.211 156.96,181.719 155.214,178.226 153.468,181.719 151.722,185.211 149.975,181.719 
			148.229,178.226 146.482,181.719 144.736,185.211 142.99,181.719 141.244,178.226 139.498,181.719 106.318,181.719 
			104.572,185.211 102.826,181.719 101.08,178.226 99.333,181.719 97.587,185.211 95.84,181.719 94.094,178.226 92.348,181.719 
			90.602,185.211 88.855,181.719 87.109,178.226 85.363,181.719 50.434,181.719 		"/>
	</g>
	<g>
		<defs>
			<path id="SVGID_7_" d="M258.537,146.52c0,61.133-49.557,110.684-110.677,110.684c-61.133,0-110.684-49.55-110.684-110.684
				c0-61.126,49.55-110.677,110.684-110.677C208.98,35.843,258.537,85.394,258.537,146.52z"/>
		</defs>
		<defs>
			<rect id="SVGID_8_" x="42.668" y="202.81" width="212.984" height="68.978"/>
		</defs>
		<clipPath id="SVGID_9_">
			<use xlink:href="#SVGID_7_"  overflow="visible"/>
		</clipPath>
		<clipPath id="SVGID_10_" clip-path="url(#SVGID_9_)">
			<use xlink:href="#SVGID_8_"  overflow="visible"/>
		</clipPath>
		<g clip-path="url(#SVGID_10_)">
			<path fill="none" stroke="#AC1E23" stroke-width="2" d="M26.372,194.261"/>
			<path fill="none" stroke="#AC1E23" stroke-width="2" d="M26.372,216.261"/>
			<path fill="none" stroke="#AC1E23" stroke-width="2" d="M26.372,258.446"/>
			<polyline fill="none" stroke="#AC1E23" stroke-width="2" points="26.372,27.31 257.521,27.31 257.521,188.261 			"/>
			<path fill="none" stroke="#AC1E23" stroke-width="2" d="M257.521,247.395"/>
			<line fill="none" stroke="#AC1E23" stroke-width="2" x1="80.001" y1="247.395" x2="220.97" y2="247.395"/>
			<path fill="none" stroke="#AC1E23" stroke-width="2" d="M257.521,236.44"/>
			<line fill="none" stroke="#AC1E23" stroke-width="2" x1="62.971" y1="236.44" x2="221.971" y2="236.44"/>
			<path fill="none" stroke="#AC1E23" stroke-width="2" d="M257.521,225.375"/>
			<line fill="none" stroke="#AC1E23" stroke-width="2" x1="54.304" y1="225.375" x2="228.971" y2="225.375"/>
			<path fill="none" stroke="#AC1E23" stroke-width="2" d="M257.521,214.434"/>
			<line fill="none" stroke="#AC1E23" stroke-width="2" x1="44.304" y1="214.434" x2="237.304" y2="214.434"/>
			<line fill="none" stroke="#AC1E23" stroke-width="2" x1="33.303" y1="203.369" x2="257.521" y2="203.369"/>
			<line fill="none" stroke="#AC1E23" stroke-width="2" x1="26.372" y1="192.428" x2="257.521" y2="192.428"/>
			<line fill="none" stroke="#AC1E23" stroke-width="2" x1="26.372" y1="181.363" x2="257.521" y2="181.363"/>
			<line fill="none" stroke="#AC1E23" stroke-width="2" x1="26.372" y1="170.422" x2="257.521" y2="170.422"/>
			<line fill="none" stroke="#AC1E23" stroke-width="2" x1="26.372" y1="159.357" x2="257.521" y2="159.357"/>
			<line fill="none" stroke="#AC1E23" stroke-width="2" x1="26.372" y1="148.402" x2="257.521" y2="148.402"/>
			<line fill="none" stroke="#AC1E23" stroke-width="2" x1="26.372" y1="137.352" x2="257.521" y2="137.352"/>
			<line fill="none" stroke="#AC1E23" stroke-width="2" x1="26.372" y1="126.404" x2="257.521" y2="126.404"/>
			<line fill="none" stroke="#AC1E23" stroke-width="2" x1="26.372" y1="115.346" x2="257.521" y2="115.346"/>
			<line fill="none" stroke="#AC1E23" stroke-width="2" x1="26.372" y1="104.391" x2="257.521" y2="104.391"/>
			<line fill="none" stroke="#AC1E23" stroke-width="2" x1="26.372" y1="93.333" x2="257.521" y2="93.333"/>
			<line fill="none" stroke="#AC1E23" stroke-width="2" x1="26.372" y1="82.385" x2="257.521" y2="82.385"/>
			<line fill="none" stroke="#AC1E23" stroke-width="2" x1="26.372" y1="71.328" x2="257.521" y2="71.328"/>
			<line fill="none" stroke="#AC1E23" stroke-width="2" x1="26.372" y1="60.376" x2="257.521" y2="60.376"/>
			<line fill="none" stroke="#AC1E23" stroke-width="2" x1="26.372" y1="49.319" x2="257.521" y2="49.319"/>
			<line fill="none" stroke="#AC1E23" stroke-width="2" x1="26.372" y1="38.37" x2="257.521" y2="38.37"/>
			<path fill="none" stroke="#AC1E23" stroke-width="2" d="M246.512,258.446"/>
			<line fill="none" stroke="#AC1E23" stroke-width="2" x1="246.512" y1="27.31" x2="246.512" y2="224.594"/>
			<path fill="none" stroke="#AC1E23" stroke-width="2" d="M235.516,258.446"/>
			<line fill="none" stroke="#AC1E23" stroke-width="2" x1="235.516" y1="27.31" x2="235.516" y2="230.594"/>
			<path fill="none" stroke="#AC1E23" stroke-width="2" d="M224.506,258.446"/>
			<line fill="none" stroke="#AC1E23" stroke-width="2" x1="224.506" y1="27.31" x2="224.506" y2="240.261"/>
			<line fill="none" stroke="#AC1E23" stroke-width="2" x1="213.503" y1="27.31" x2="213.503" y2="258.446"/>
			<line fill="none" stroke="#AC1E23" stroke-width="2" x1="202.5" y1="27.31" x2="202.5" y2="258.446"/>
			<line fill="none" stroke="#AC1E23" stroke-width="2" x1="191.49" y1="27.31" x2="191.49" y2="258.446"/>
			<line fill="none" stroke="#AC1E23" stroke-width="2" x1="180.494" y1="27.31" x2="180.494" y2="258.446"/>
			<line fill="none" stroke="#AC1E23" stroke-width="2" x1="169.484" y1="27.31" x2="169.484" y2="258.446"/>
			<line fill="none" stroke="#AC1E23" stroke-width="2" x1="158.481" y1="27.31" x2="158.481" y2="258.446"/>
			<line fill="none" stroke="#AC1E23" stroke-width="2" x1="147.479" y1="27.31" x2="147.479" y2="258.446"/>
			<line fill="none" stroke="#AC1E23" stroke-width="2" x1="136.414" y1="27.31" x2="136.414" y2="258.446"/>
			<line fill="none" stroke="#AC1E23" stroke-width="2" x1="125.411" y1="27.31" x2="125.411" y2="258.446"/>
			<line fill="none" stroke="#AC1E23" stroke-width="2" x1="114.408" y1="27.31" x2="114.408" y2="258.446"/>
			<line fill="none" stroke="#AC1E23" stroke-width="2" x1="103.405" y1="27.31" x2="103.405" y2="258.446"/>
			<line fill="none" stroke="#AC1E23" stroke-width="2" x1="92.402" y1="27.31" x2="92.402" y2="258.446"/>
			<line fill="none" stroke="#AC1E23" stroke-width="2" x1="81.4" y1="27.31" x2="81.4" y2="258.446"/>
			<path fill="none" stroke="#AC1E23" stroke-width="2" d="M70.397,258.446"/>
			<line fill="none" stroke="#AC1E23" stroke-width="2" x1="70.397" y1="27.31" x2="70.397" y2="236.44"/>
			<path fill="none" stroke="#AC1E23" stroke-width="2" d="M59.387,258.446"/>
			<line fill="none" stroke="#AC1E23" stroke-width="2" x1="59.387" y1="27.31" x2="59.387" y2="225.375"/>
			<path fill="none" stroke="#AC1E23" stroke-width="2" d="M48.384,258.446"/>
			<line fill="none" stroke="#AC1E23" stroke-width="2" x1="48.384" y1="27.31" x2="48.384" y2="214.433"/>
			<path fill="none" stroke="#AC1E23" stroke-width="2" d="M37.381,258.446"/>
			<line fill="none" stroke="#AC1E23" stroke-width="2" x1="37.381" y1="27.31" x2="37.381" y2="203.314"/>
		</g>
		<use xlink:href="#SVGID_7_"  overflow="visible" fill="none" stroke="#AC1E23" stroke-width="2"/>
	</g>
</g>
</svg>
